<?xml version="1.0" encoding="UTF-8"?>
<svg width="105px" height="27px" viewBox="0 0 105 27" version="1.1" xmlns="http://www.w3.org/2000/svg" xmlns:xlink="http://www.w3.org/1999/xlink">
    <!-- Generator: Sketch 59.1 (86144) - https://sketch.com -->
    <title>app</title>
    <desc>Created with Sketch.</desc>
    <g id="子账户改" stroke="none" stroke-width="1" fill="none" fill-rule="evenodd">
        <g id="重置子账户谷歌验证码" transform="translate(-501.000000, -453.000000)" fill="#01081E">
            <g id="编组-2" transform="translate(480.000000, 370.000000)">
                <g id="Group" transform="translate(0.000000, 72.000000)">
                    <g id="app" transform="translate(21.000000, 11.000000)">
                        <path d="M36.875,20.26861 L32.1416,20.26861 L31.00488,23.62506 L29,23.62506 L33.4834,11.20706 L35.5664,11.20706 L40.0498,23.62506 L38.01073,23.62506 L36.875,20.26861 Z M32.63183,18.71978 L36.38383,18.71978 L34.53422,13.27251 L34.48246,13.27251 L32.63183,18.71978 Z M49.73242,19.09869 C49.73242,21.91217 48.22656,23.71978 45.9541,23.71978 C44.7794853,23.7812246 43.6730624,23.1659907 43.10547,22.13578 L43.06247,22.13578 L43.06247,26.62016 L41.20407,26.62016 L41.20407,14.57134 L43.00293,14.57134 L43.00293,16.0772 L43.03711,16.0772 C43.6299183,15.0534479 44.7375343,14.4384788 45.91992,14.47661 C48.21773,14.47662 49.73242,16.29302 49.73242,19.09869 Z M47.82226,19.09869 C47.82226,17.26569 46.87499,16.0606 45.42968,16.0606 C44.00976,16.0606 43.05468,17.29107 43.05468,19.09869 C43.05468,20.92291 44.00976,22.14459 45.42968,22.14459 C46.875,22.14459 47.82226,20.9483 47.82226,19.09869 Z M59.69726,19.09869 C59.69726,21.91217 58.1914,23.71978 55.91894,23.71978 C54.7443253,23.7812246 53.6379024,23.1659907 53.07031,22.13578 L53.02731,22.13578 L53.02731,26.62016 L51.16891,26.62016 L51.16891,14.57134 L52.96773,14.57134 L52.96773,16.0772 L53.00191,16.0772 C53.5947226,15.0534485 54.7023428,14.4384831 55.88473,14.47662 C58.18261,14.47662 59.69726,16.29302 59.69726,19.09869 Z M57.78711,19.09869 C57.78711,17.26569 56.83983,16.0606 55.39452,16.0606 C53.9746,16.0606 53.01952,17.29107 53.01952,19.09869 C53.01952,20.92291 53.9746,22.14459 55.39452,22.14459 C56.83984,22.14459 57.78711,20.9483 57.78711,19.09869 L57.78711,19.09869 Z M66.2832,20.16509 C66.4209,21.39654 67.6172,22.20509 69.25195,22.20509 C70.81836,22.20509 71.94531,21.3965 71.94531,20.28614 C71.94531,19.32227 71.26562,18.74514 69.65625,18.34962 L68.04688,17.96192 C65.76661,17.41114 64.70801,16.34473 64.70801,14.61426 C64.70801,12.47168 66.5752,11 69.22656,11 C71.85056,11 73.64941,12.47168 73.70996,14.61426 L71.83396,14.61426 C71.72166,13.375 70.69724,12.62696 69.20017,12.62696 C67.7031,12.62696 66.67869,13.3838 66.67869,14.48536 C66.67869,15.36329 67.33299,15.87989 68.93357,16.27536 L70.30173,16.6113 C72.84958,17.21384 73.90818,18.2373 73.90818,20.05368 C73.90818,22.37692 72.05759,23.832 69.11423,23.832 C66.36032,23.832 64.50095,22.4111 64.38083,20.165 L66.2832,20.16509 Z M77.91894,12.42876 L77.91894,14.57134 L79.64062,14.57134 L79.64062,16.04302 L77.91894,16.04302 L77.91894,21.03423 C77.91894,21.80962 78.26367,22.17095 79.0205,22.17095 C79.2248914,22.1673859 79.4289521,22.1530326 79.63183,22.12795 L79.63183,23.59084 C79.2915583,23.6544196 78.9457008,23.6832145 78.5996,23.67678 C76.7666,23.67678 76.05175,22.9883 76.05175,21.23244 L76.05175,16.04302 L74.73535,16.04302 L74.73535,14.57134 L76.05173,14.57134 L76.05173,12.42876 L77.91894,12.42876 Z M80.63773,19.09869 C80.63773,16.25006 82.31546,14.46002 84.93168,14.46002 C87.55668,14.46002 89.2266,16.25002 89.2266,19.09869 C89.2266,21.95514 87.56547,23.73736 84.93168,23.73736 C82.29882,23.73736 80.63773,21.95513 80.63773,19.09869 Z M87.33304,19.09869 C87.33304,17.14459 86.43753,15.99127 84.93167,15.99127 C83.42581,15.99127 82.53128,17.15338 82.53128,19.09869 C82.53128,21.0606 83.42581,22.20514 84.93167,22.20514 C86.43753,22.20514 87.33304,21.0606 87.33304,19.09869 L87.33304,19.09869 Z M90.75878,14.57134 L92.53125,14.57134 L92.53125,16.11234 L92.57425,16.11234 C92.821426,15.1203284 93.7303826,14.4375916 94.75198,14.4766 C94.966144,14.4758522 95.1797172,14.4991107 95.3887,14.54594 L95.3887,16.28422 C95.118331,16.2016033 94.8362896,16.1636713 94.5537,16.17192 C94.0073482,16.1497554 93.4786009,16.3674947 93.1062915,16.767966 C92.733982,17.1684372 92.5553066,17.7116307 92.61718,18.25492 L92.61718,23.62504 L90.75878,23.62504 L90.75878,14.57134 Z M103.95703,20.96587 C103.70703,22.60942 102.10644,23.73735 100.05859,23.73735 C97.4248,23.73735 95.79004,21.9727 95.79004,19.14165 C95.79004,16.30181 97.43359,14.46001 99.98047,14.46001 C102.48535,14.46001 104.06055,16.18071 104.06055,18.92583 L104.06055,19.56255 L97.66602,19.56255 L97.66602,19.67485 C97.6063174,20.3488816 97.8390616,21.0160794 98.3050499,21.5067299 C98.7710383,21.9973804 99.4253575,22.2641933 100.10157,22.2393 C101.003412,22.3237996 101.853673,21.8059377 102.19239,20.96586 L103.95703,20.96587 Z M97.6747924,18.26373 L102.20117,18.26373 C102.234895,17.6580575 102.014427,17.0657831 101.59288,16.6295915 C101.171334,16.1934 100.586931,15.9528404 99.98047,15.96587 C99.3692118,15.9622222 98.7818207,16.2028946 98.3488555,16.6343932 C97.9158903,17.0658919 97.6732263,17.6524629 97.6747924,18.26373 L97.6747924,18.26373 Z" id="App-Store"></path>
                        <path d="M31.15527,0.294 C31.9442166,0.237384181 32.7169723,0.537547428 33.2608413,1.11187182 C33.8047103,1.68619621 34.0623659,2.47414479 33.96289,3.25884 C33.96289,5.16509 32.93262,6.26084 31.15527,6.26084 L29,6.26084 L29,0.294 L31.15527,0.294 Z M29.92675,5.417 L31.05175,5.417 C31.6155719,5.45070201 32.1645665,5.22855901 32.5462985,4.81225179 C32.9280305,4.39594457 33.1018596,3.82979442 33.01952,3.271 C33.095869,2.71452453 32.9195366,2.15304622 32.5387511,1.74013398 C32.1579656,1.32722175 31.6125757,1.1060863 31.05175,1.13721 L29.92675,1.13721 L29.92675,5.417 Z M35.00976,4.00734 C34.9325471,3.20022505 35.3195637,2.41911193 36.0084959,1.99159737 C36.6974282,1.5640828 37.5691618,1.5640828 38.2580941,1.99159737 C38.9470263,2.41911193 39.3340429,3.20022505 39.25683,4.00734 C39.3355119,4.81532226 38.9488487,5.59795038 38.2593055,6.0263853 C37.5697624,6.45482022 36.6968276,6.45482022 36.0072845,6.0263853 C35.3177413,5.59795038 34.9310781,4.81532226 35.00976,4.00734 Z M38.34277,4.00734 C38.34277,3.03127 37.90428,2.46047 37.13476,2.46047 C36.3623,2.46047 35.92776,3.03127 35.92776,4.00735 C35.92776,4.99124 36.36233,5.55764 37.13476,5.55764 C37.9043,5.55764 38.34277,4.98732 38.34277,4.00734 L38.34277,4.00734 Z M44.90234,6.26075 L43.98047,6.26075 L43.04981,2.94434 L42.9795,2.94434 L42.05274,6.26075 L41.13965,6.26075 L39.89844,1.75782 L40.79981,1.75782 L41.60645,5.19382 L41.67286,5.19382 L42.59864,1.75782 L43.45118,1.75782 L44.37696,5.19382 L44.44727,5.19382 L45.25,1.75782 L46.13867,1.75782 L44.90234,6.26075 Z M47.18261,1.75782 L48.03808,1.75782 L48.03808,2.47315 L48.10449,2.47315 C48.3354249,1.94647794 48.8750529,1.62430747 49.44824,1.6709 C49.8920568,1.63753177 50.3269659,1.8077899 50.6301708,2.13360207 C50.9333757,2.45941424 51.0719731,2.90542376 51.00683,3.3457 L51.00683,6.2607 L50.11816,6.2607 L50.11816,3.56886 C50.11816,2.84523 49.80371,2.48536 49.14648,2.48536 C48.8454458,2.47133912 48.5533002,2.58948257 48.3466346,2.80881678 C48.139969,3.028151 48.039395,3.32680101 48.07128,3.62647 L48.07128,6.26075 L47.18261,6.26075 L47.18261,1.75782 Z M52.42285,2.25153229e-13 L53.31152,2.25153229e-13 L53.31152,6.26074 L52.42285,6.26074 L52.42285,2.25153229e-13 Z M54.54687,4.00734 C54.4697164,3.20017225 54.856794,2.41903936 55.5457774,1.9915182 C56.2347608,1.56399704 57.1065392,1.56399704 57.7955226,1.9915182 C58.484506,2.41903936 58.8715836,3.20017225 58.79443,4.00734 C58.873012,4.81535119 58.4862779,5.59795719 57.7967005,6.02637324 C57.1071232,6.45478929 56.2341768,6.45478929 55.5445995,6.02637324 C54.8550221,5.59795719 54.468288,4.81535119 54.54687,4.00734 L54.54687,4.00734 Z M57.87988,4.00734 C57.87988,3.03127 57.44139,2.46047 56.67187,2.46047 C55.89941,2.46047 55.46487,3.03127 55.46487,4.00735 C55.46487,4.99124 55.89944,5.55764 56.67187,5.55764 C57.4414,5.55764 57.87988,4.98732 57.87988,4.00734 L57.87988,4.00734 Z M59.72998,4.98732 C59.72998,4.17677 60.3335,3.70949 61.40478,3.64308 L62.62451,3.57277 L62.62451,3.1841 C62.62451,2.70851 62.31006,2.43996 61.70264,2.43996 C61.20655,2.43996 60.8628,2.62209 60.76416,2.94045 L59.90381,2.94045 C59.99463,2.16701 60.72217,1.67092 61.74365,1.67092 C62.87256,1.67092 63.50928,2.23292 63.50928,3.1841 L63.50928,6.26076 L62.65381,6.26076 L62.65381,5.62795 L62.5835,5.62795 C62.2929486,6.09007633 61.7762536,6.36016323 61.23096,6.33495 C60.8486961,6.37471181 60.4674511,6.25091066 60.1814758,5.99415244 C59.8955005,5.73739423 59.7314861,5.37164331 59.72998,4.98732 L59.72998,4.98732 Z M62.62451,4.60255 L62.62451,4.22609 L61.5249,4.2964 C60.90478,4.3379 60.62353,4.54884 60.62353,4.94581 C60.62353,5.35108 60.97509,5.58692 61.45853,5.58692 C61.7447161,5.61588986 62.0304064,5.52747505 62.2502004,5.34191559 C62.4699944,5.15635613 62.6050716,4.88954106 62.62451,4.60255 Z M64.67724,4.00734 C64.67724,2.58449 65.40869,1.68312 66.54638,1.68312 C67.1208568,1.65665013 67.6589075,1.96447287 67.92724,2.47312 L67.99365,2.47312 L67.99365,2.25153229e-13 L68.88232,2.25153229e-13 L68.88232,6.26074 L68.03076,6.26074 L68.03076,5.54931 L67.96045,5.54931 C67.6718342,6.05373698 67.1271545,6.35635648 66.54639,6.33495 C65.40088,6.335 64.67724,5.43361 64.67724,4.00734 Z M65.59524,4.00734 C65.59524,4.96242 66.04544,5.53713 66.79837,5.53713 C67.54737,5.53713 68.01028,4.95413 68.01028,4.01125 C68.01028,3.07277 67.54251,2.48146 66.79837,2.48146 C66.05029,2.48146 65.59521,3.06007 65.59521,4.00734 L65.59524,4.00734 Z M72.55908,4.00734 C72.4818671,3.20022505 72.8688837,2.41911193 73.5578159,1.99159737 C74.2467482,1.5640828 75.1184818,1.5640828 75.8074141,1.99159737 C76.4963463,2.41911193 76.8833629,3.20022505 76.80615,4.00734 C76.8848319,4.81532226 76.4981687,5.59795038 75.8086255,6.0263853 C75.1190824,6.45482022 74.2461476,6.45482022 73.5566045,6.0263853 C72.8670613,5.59795038 72.4803981,4.81532226 72.55908,4.00734 L72.55908,4.00734 Z M75.89208,4.00734 C75.89208,3.03127 75.4536,2.46047 74.68408,2.46047 C73.91162,2.46047 73.47708,3.03127 73.47708,4.00735 C73.47708,4.99124 73.91165,5.55764 74.68408,5.55764 C75.45361,5.55764 75.89208,4.98732 75.89208,4.00734 Z M77.99853,1.75782 L78.854,1.75782 L78.854,2.47315 L78.92041,2.47315 C79.1513449,1.94647794 79.6909729,1.62430747 80.26416,1.6709 C80.7079768,1.63753177 81.1428859,1.8077899 81.4460908,2.13360207 C81.7492957,2.45941424 81.8878931,2.90542376 81.82275,3.3457 L81.82275,6.2607 L80.93408,6.2607 L80.93408,3.56886 C80.93408,2.84523 80.61963,2.48536 79.9624,2.48536 C79.6613658,2.47133912 79.3692202,2.58948257 79.1625546,2.80881678 C78.955889,3.028151 78.855315,3.32680101 78.8872,3.62647 L78.8872,6.26075 L77.99853,6.26075 L77.99853,1.75782 Z M86.84424,0.63673 L86.84424,1.77833 L87.81983,1.77833 L87.81983,2.52687 L86.84424,2.52687 L86.84424,4.8423 C86.84424,5.31398 87.03858,5.52052 87.48096,5.52052 C87.5942156,5.52015754 87.7073575,5.51330966 87.81983,5.50001 L87.81983,6.24024 C87.6602395,6.26879072 87.4985456,6.28398004 87.33643,6.28565 C86.34815,6.28565 85.95459,5.93799 85.95459,5.06983 L85.95459,2.52683 L85.23975,2.52683 L85.23975,1.77829 L85.95459,1.77829 L85.95459,0.63673 L86.84424,0.63673 Z M89.03369,2.25153229e-13 L89.91455,2.25153229e-13 L89.91455,2.48145 L89.98486,2.48145 C90.2268878,1.95016856 90.7759601,1.62758754 91.35786,1.67481 C91.7991566,1.65079728 92.2281783,1.82480371 92.5280693,2.14943385 C92.8279602,2.47406399 92.9674849,2.91550564 92.90864,3.35352 L92.90864,6.26075 L92.01908,6.26075 L92.01908,3.57275 C92.01908,2.85351 91.68408,2.48925 91.05619,2.48925 C90.747019,2.46389367 90.4424191,2.57629096 90.2238223,2.7963935 C90.0052256,3.01649605 89.8949219,3.32186031 89.9224,3.63085 L89.9224,6.26075 L89.03373,6.26075 L89.03369,2.25153229e-13 Z M98.09033,5.04493 C97.841137,5.89430948 97.0191789,6.44310304 96.13916,6.34766 C95.5387239,6.3635102 94.9616714,6.1146307 94.5611082,5.66705516 C94.1605451,5.21947963 93.9769664,4.61845594 94.05908,4.02345 C93.9791474,3.42679048 94.1620382,2.82480373 94.5603708,2.37344696 C94.9587034,1.92209018 95.533282,1.66577675 96.13525,1.67091 C97.38818,1.67091 98.14404,2.52691 98.14404,3.94091 L98.14404,4.251 L94.96435,4.251 L94.96435,4.3008 C94.936212,4.63494014 95.0503307,4.96544775 95.2786408,5.2110407 C95.5069509,5.45663365 95.8282679,5.59452392 96.16357,5.5908 C96.5983419,5.64299468 97.0215625,5.42733304 97.23486,5.0449 L98.09033,5.04493 Z M94.96433,3.59376 L97.23874,3.59376 C97.2613929,3.28816044 97.1539385,2.98720507 96.9428569,2.76505909 C96.7317754,2.54291311 96.4366975,2.42023623 96.13034,2.42726 C95.819832,2.42335891 95.520908,2.54502124 95.3013763,2.76464888 C95.0818447,2.98427653 94.9603131,3.28325374 94.96435,3.59376 L94.96433,3.59376 Z" id="Download-on-the"></path>
                        <path d="M14.7973126,13.58041 C14.8191696,11.8839391 15.7085555,10.3169161 17.1538726,9.42835 C16.2379452,8.12024277 14.7588246,7.32060835 13.1627126,7.27067 C11.4834726,7.09441 9.85552256,8.2755 8.99981256,8.2755 C8.12754256,8.2755 6.81004256,7.28817 5.39131256,7.31736 C3.52463382,7.37766842 1.82656973,8.41325548 0.91839256,10.04523 C-1.01560744,13.39365 0.42698256,18.3147 2.27959256,21.02131 C3.20649256,22.34666 4.28977256,23.82711 5.70722256,23.77461 C7.09428256,23.71708 7.61232256,22.89013 9.28662256,22.89013 C10.9453826,22.89013 11.4314126,23.77461 12.8776226,23.74123 C14.3660026,23.71707 15.3037526,22.40999 16.1981326,21.07209 C16.8641087,20.1277297 17.3765762,19.0840059 17.7165526,17.97958 C15.9488091,17.2319113 14.7993758,15.4997643 14.7973126,13.58041 L14.7973126,13.58041 Z M12.0656826,5.49062 C12.8772092,4.51641191 13.2770175,3.26423245 13.1802026,2 C11.9403704,2.13022049 10.7951128,2.72277968 9.97262256,3.65961 C9.16045128,4.58391903 8.74900719,5.79316268 8.82891256,7.021 C10.0853694,7.03393677 11.2783487,6.46988322 12.0656826,5.49062 L12.0656826,5.49062 Z" id="apple"></path>
                    </g>
                </g>
            </g>
        </g>
    </g>
</svg>