<?xml version="1.0" encoding="UTF-8"?>
<svg width="119px" height="27px" viewBox="0 0 119 27" version="1.1" xmlns="http://www.w3.org/2000/svg" xmlns:xlink="http://www.w3.org/1999/xlink">
    <!-- Generator: Sketch 59.1 (86144) - https://sketch.com -->
    <title>google-play</title>
    <desc>Created with Sketch.</desc>
    <defs>
        <linearGradient x1="61.7710454%" y1="4.84%" x2="24.4968086%" y2="71.968%" id="linearGradient-1">
            <stop stop-color="#00A0FF" offset="0%"></stop>
            <stop stop-color="#00A1FF" offset="0.7%"></stop>
            <stop stop-color="#00BEFF" offset="26%"></stop>
            <stop stop-color="#00D2FF" offset="51.2%"></stop>
            <stop stop-color="#00DFFF" offset="76%"></stop>
            <stop stop-color="#00E3FF" offset="100%"></stop>
        </linearGradient>
        <linearGradient x1="107.724138%" y1="49.4235294%" x2="-130.669951%" y2="49.4235294%" id="linearGradient-2">
            <stop stop-color="#FFE000" offset="0%"></stop>
            <stop stop-color="#FFBD00" offset="40.9%"></stop>
            <stop stop-color="#FFA500" offset="77.5%"></stop>
            <stop stop-color="#FF9C00" offset="100%"></stop>
        </linearGradient>
        <linearGradient x1="86.3892216%" y1="32.0459556%" x2="-49.8862275%" y2="130.544355%" id="linearGradient-3">
            <stop stop-color="#FF3A44" offset="0%"></stop>
            <stop stop-color="#C31162" offset="100%"></stop>
        </linearGradient>
        <linearGradient x1="-18.5808383%" y1="-7.76858992%" x2="42.2754491%" y2="36.0135173%" id="linearGradient-4">
            <stop stop-color="#32A071" offset="0%"></stop>
            <stop stop-color="#2DA771" offset="6.9%"></stop>
            <stop stop-color="#15CF74" offset="47.6%"></stop>
            <stop stop-color="#06E775" offset="80.1%"></stop>
            <stop stop-color="#00F076" offset="100%"></stop>
        </linearGradient>
    </defs>
    <g id="子账户改" stroke="none" stroke-width="1" fill="none" fill-rule="evenodd">
        <g id="重置子账户谷歌验证码" transform="translate(-658.000000, -453.000000)">
            <g id="编组-2" transform="translate(480.000000, 370.000000)">
                <g id="google-play-badge" transform="translate(238.000000, 96.000000) rotate(-360.000000) translate(-238.000000, -96.000000) translate(164.000000, 72.000000)">
                    <g id="google-play" transform="translate(14.000000, 11.000000)">
                        <path d="M40.0309278,3.19354839 C40.0309278,3.96774194 39.8298969,4.64516129 39.3273196,5.12903226 C38.7242268,5.70967742 38.0206186,6 37.1159794,6 C36.2113402,6 35.507732,5.70967742 34.9046392,5.12903226 C34.3015464,4.5483871 34,3.87096774 34,3 C34,2.12903226 34.3015464,1.4516129 34.9046392,0.870967742 C35.507732,0.290322581 36.2113402,-4.54747351e-13 37.1159794,-4.54747351e-13 C37.5180412,-4.54747351e-13 37.9201031,0.0967741935 38.3221649,0.290322581 C38.7242268,0.483870968 39.0257732,0.677419355 39.2268041,0.967741935 L38.7242268,1.4516129 C38.3221649,0.967741935 37.8195876,0.774193548 37.1159794,0.774193548 C36.5128866,0.774193548 35.9097938,0.967741935 35.507732,1.4516129 C35.0051546,1.83870968 34.8041237,2.41935484 34.8041237,3.09677419 C34.8041237,3.77419355 35.0051546,4.35483871 35.507732,4.74193548 C36.0103093,5.12903226 36.5128866,5.41935484 37.1159794,5.41935484 C37.8195876,5.41935484 38.3221649,5.22580645 38.8247423,4.74193548 C39.1262887,4.4516129 39.3273196,4.06451613 39.3273196,3.58064516 L37.1159794,3.58064516 L37.1159794,2.80645161 L40.0309278,2.80645161 L40.0309278,3.19354839 L40.0309278,3.19354839 Z M44.6546392,0.774193548 L41.9407216,0.774193548 L41.9407216,2.61290323 L44.4536082,2.61290323 L44.4536082,3.29032258 L41.9407216,3.29032258 L41.9407216,5.12903226 L44.6546392,5.12903226 L44.6546392,5.90322581 L41.1365979,5.90322581 L41.1365979,0.0967741935 L44.6546392,0.0967741935 L44.6546392,0.774193548 Z M47.9716495,5.90322581 L47.1675258,5.90322581 L47.1675258,0.774193548 L45.4587629,0.774193548 L45.4587629,0.0967741935 L49.6804124,0.0967741935 L49.6804124,0.774193548 L47.9716495,0.774193548 L47.9716495,5.90322581 Z M52.5953608,5.90322581 L52.5953608,0.0967741935 L53.3994845,0.0967741935 L53.3994845,5.90322581 L52.5953608,5.90322581 Z M56.8170103,5.90322581 L56.0128866,5.90322581 L56.0128866,0.774193548 L54.3041237,0.774193548 L54.3041237,0.0967741935 L58.4252577,0.0967741935 L58.4252577,0.774193548 L56.7164948,0.774193548 L56.7164948,5.90322581 L56.8170103,5.90322581 Z M66.3659794,5.12903226 C65.7628866,5.70967742 65.0592784,6 64.1546392,6 C63.25,6 62.5463918,5.70967742 61.943299,5.12903226 C61.3402062,4.5483871 61.0386598,3.87096774 61.0386598,3 C61.0386598,2.12903226 61.3402062,1.4516129 61.943299,0.870967742 C62.5463918,0.290322581 63.25,-4.54747351e-13 64.1546392,-4.54747351e-13 C65.0592784,-4.54747351e-13 65.7628866,0.290322581 66.3659794,0.870967742 C66.9690722,1.4516129 67.2706186,2.12903226 67.2706186,3 C67.2706186,3.87096774 66.9690722,4.5483871 66.3659794,5.12903226 Z M62.5463918,4.64516129 C62.9484536,5.03225806 63.5515464,5.32258065 64.1546392,5.32258065 C64.757732,5.32258065 65.3608247,5.12903226 65.7628866,4.64516129 C66.1649485,4.25806452 66.4664948,3.67741935 66.4664948,3 C66.4664948,2.32258065 66.2654639,1.74193548 65.7628866,1.35483871 C65.3608247,0.967741935 64.757732,0.677419355 64.1546392,0.677419355 C63.5515464,0.677419355 62.9484536,0.870967742 62.5463918,1.35483871 C62.1443299,1.74193548 61.8427835,2.32258065 61.8427835,3 C61.8427835,3.67741935 62.0438144,4.25806452 62.5463918,4.64516129 Z M68.3762887,5.90322581 L68.3762887,0.0967741935 L69.2809278,0.0967741935 L72.1958763,4.64516129 L72.1958763,0.0967741935 L73,0.0967741935 L73,5.90322581 L72.1958763,5.90322581 L69.0798969,1.16129032 L69.0798969,5.90322581 L68.3762887,5.90322581 L68.3762887,5.90322581 Z" id="形状" fill="#01081E"></path>
                        <path d="M61.1276596,14.7278107 C58.7163121,14.7278107 56.8073286,16.5384615 56.8073286,19.0532544 C56.8073286,21.4674556 58.7163121,23.3786982 61.1276596,23.3786982 C63.5390071,23.3786982 65.4479905,21.5680473 65.4479905,19.0532544 C65.4479905,16.4378698 63.5390071,14.7278107 61.1276596,14.7278107 Z M61.1276596,21.5680473 C59.821513,21.5680473 58.7163121,20.4615385 58.7163121,18.9526627 C58.7163121,17.443787 59.821513,16.3372781 61.1276596,16.3372781 C62.4338061,16.3372781 63.5390071,17.3431953 63.5390071,18.9526627 C63.5390071,20.4615385 62.4338061,21.5680473 61.1276596,21.5680473 Z M51.7836879,14.7278107 C49.3723404,14.7278107 47.463357,16.5384615 47.463357,19.0532544 C47.463357,21.4674556 49.3723404,23.3786982 51.7836879,23.3786982 C54.1950355,23.3786982 56.1040189,21.5680473 56.1040189,19.0532544 C56.1040189,16.4378698 54.1950355,14.7278107 51.7836879,14.7278107 Z M51.7836879,21.5680473 C50.4775414,21.5680473 49.3723404,20.4615385 49.3723404,18.9526627 C49.3723404,17.443787 50.4775414,16.3372781 51.7836879,16.3372781 C53.0898345,16.3372781 54.1950355,17.3431953 54.1950355,18.9526627 C54.1950355,20.4615385 53.0898345,21.5680473 51.7836879,21.5680473 Z M40.6312057,16.035503 L40.6312057,17.8461538 L44.9515366,17.8461538 C44.8510638,18.852071 44.4491726,19.6568047 43.9468085,20.1597633 C43.3439716,20.7633136 42.3392435,21.4674556 40.6312057,21.4674556 C37.9184397,21.4674556 35.9089835,19.3550296 35.9089835,16.6390533 C35.9089835,13.9230769 38.0189125,11.8106509 40.6312057,11.8106509 C42.0378251,11.8106509 43.143026,12.4142012 43.9468085,13.1183432 L45.2529551,11.8106509 C44.1477541,10.8047337 42.7411348,10 40.7316785,10 C37.1146572,10 34,13.0177515 34,16.6390533 C34,20.260355 37.1146572,23.2781065 40.7316785,23.2781065 C42.7411348,23.2781065 44.1477541,22.6745562 45.3534279,21.3668639 C46.5591017,20.1597633 46.9609929,18.4497041 46.9609929,17.1420118 C46.9609929,16.739645 46.9609929,16.3372781 46.8605201,16.035503 L40.6312057,16.035503 L40.6312057,16.035503 Z M86.2458629,17.443787 C85.8439716,16.4378698 84.8392435,14.7278107 82.6288416,14.7278107 C80.4184397,14.7278107 78.6099291,16.4378698 78.6099291,19.0532544 C78.6099291,21.4674556 80.4184397,23.3786982 82.8297872,23.3786982 C84.7387707,23.3786982 85.9444444,22.1715976 86.3463357,21.4674556 L84.9397163,20.4615385 C84.4373522,21.1656805 83.8345154,21.6686391 82.8297872,21.6686391 C81.8250591,21.6686391 81.2222222,21.2662722 80.7198582,20.3609467 L86.4468085,17.9467456 L86.2458629,17.443787 L86.2458629,17.443787 Z M80.4184397,18.852071 C80.4184397,17.2426036 81.7245863,16.3372781 82.6288416,16.3372781 C83.3321513,16.3372781 84.035461,16.739645 84.2364066,17.2426036 L80.4184397,18.852071 Z M75.6962175,22.9763314 L77.6052009,22.9763314 L77.6052009,10.4023669 L75.6962175,10.4023669 L75.6962175,22.9763314 Z M72.6820331,15.6331361 C72.179669,15.1301775 71.3758865,14.6272189 70.3711584,14.6272189 C68.2612293,14.6272189 66.251773,16.5384615 66.251773,18.9526627 C66.251773,21.3668639 68.1607565,23.1775148 70.3711584,23.1775148 C71.3758865,23.1775148 72.179669,22.6745562 72.5815603,22.1715976 L72.6820331,22.1715976 L72.6820331,22.7751479 C72.6820331,24.3846154 71.7777778,25.2899408 70.3711584,25.2899408 C69.2659574,25.2899408 68.4621749,24.4852071 68.2612293,23.7810651 L66.6536643,24.4852071 C67.1560284,25.591716 68.3617021,27 70.4716312,27 C72.6820331,27 74.4905437,25.6923077 74.4905437,22.5739645 L74.4905437,14.9289941 L72.6820331,14.9289941 L72.6820331,15.6331361 L72.6820331,15.6331361 Z M70.4716312,21.5680473 C69.1654846,21.5680473 68.0602837,20.4615385 68.0602837,18.9526627 C68.0602837,17.443787 69.1654846,16.3372781 70.4716312,16.3372781 C71.7777778,16.3372781 72.7825059,17.443787 72.7825059,18.9526627 C72.7825059,20.4615385 71.7777778,21.5680473 70.4716312,21.5680473 Z M94.9869976,10.4023669 L90.465721,10.4023669 L90.465721,22.9763314 L92.3747045,22.9763314 L92.3747045,18.2485207 L94.9869976,18.2485207 C97.0969267,18.2485207 99.106383,16.739645 99.106383,14.3254438 C99.106383,11.9112426 97.0969267,10.4023669 94.9869976,10.4023669 L94.9869976,10.4023669 Z M95.0874704,16.4378698 L92.3747045,16.4378698 L92.3747045,12.112426 L95.0874704,12.112426 C96.4940898,12.112426 97.2978723,13.3195266 97.2978723,14.2248521 C97.1973995,15.3313609 96.393617,16.4378698 95.0874704,16.4378698 Z M106.641844,14.6272189 C105.235225,14.6272189 103.828605,15.2307692 103.326241,16.5384615 L105.034279,17.2426036 C105.43617,16.5384615 106.039007,16.3372781 106.742317,16.3372781 C107.747045,16.3372781 108.6513,16.9408284 108.751773,17.9467456 L108.751773,18.0473373 C108.450355,17.8461538 107.646572,17.5443787 106.84279,17.5443787 C105.034279,17.5443787 103.225768,18.5502959 103.225768,20.3609467 C103.225768,22.0710059 104.732861,23.1775148 106.340426,23.1775148 C107.646572,23.1775148 108.249409,22.5739645 108.751773,21.9704142 L108.852246,21.9704142 L108.852246,22.9763314 L110.660757,22.9763314 L110.660757,18.147929 C110.459811,15.9349112 108.751773,14.6272189 106.641844,14.6272189 L106.641844,14.6272189 Z M106.440898,21.5680473 C105.838061,21.5680473 104.933806,21.2662722 104.933806,20.4615385 C104.933806,19.4556213 106.039007,19.1538462 106.943262,19.1538462 C107.747045,19.1538462 108.148936,19.3550296 108.6513,19.556213 C108.450355,20.7633136 107.445626,21.5680473 106.440898,21.5680473 L106.440898,21.5680473 Z M116.990544,14.9289941 L114.880615,20.3609467 L114.780142,20.3609467 L112.56974,14.9289941 L110.560284,14.9289941 L113.875887,22.5739645 L111.966903,26.7988166 L113.875887,26.7988166 L119,14.9289941 L116.990544,14.9289941 L116.990544,14.9289941 Z M100.111111,22.9763314 L102.020095,22.9763314 L102.020095,10.4023669 L100.111111,10.4023669 L100.111111,22.9763314 Z" id="形状" fill="#01081E"></path>
                        <g id="google" transform="translate(0.000000, -0.000000)" fill-rule="nonzero">
                            <path d="M0.4163414,0.394855106 C0.10408535,0.697040136 0,1.20068185 0,1.80505191 L0,24.0660158 C0,24.6703859 0.2081707,25.1740276 0.52042675,25.4762126 L0.6245121,25.576941 L13.5310955,13.0866264 L13.5310955,12.8851697 L0.4163414,0.394855106 Z" id="路径" fill="url(#linearGradient-1)"></path>
                            <path d="M17.6945095,17.3172168 L13.4270101,13.1873547 L13.4270101,12.8851697 L17.6945095,8.75530761 L17.7985948,8.85603595 L22.898777,11.6764296 C24.3559719,12.4822563 24.3559719,13.7917248 22.898777,14.5975515 L17.6945095,17.3172168 L17.6945095,17.3172168 Z" id="路径" fill="url(#linearGradient-2)"></path>
                            <path d="M17.7985948,17.2164885 L13.4270101,12.985898 L0.4163414,25.576941 C0.93676815,26.0805827 1.6653656,26.0805827 2.60213375,25.6776693 L17.7985948,17.2164885" id="路径" fill="url(#linearGradient-3)"></path>
                            <path d="M17.7985948,8.75530761 L2.60213375,0.394855106 C1.6653656,-0.108786611 0.93676815,-0.00805826747 0.4163414,0.49558345 L13.4270101,12.985898 L17.7985948,8.75530761 L17.7985948,8.75530761 Z" id="路径" fill="url(#linearGradient-4)"></path>
                            <path d="M17.6945095,17.1157601 L2.60213375,25.3754843 C1.76945095,25.879126 1.0408535,25.7783976 0.52042675,25.3754843 L0.4163414,25.4762126 L0.52042675,25.576941 C1.0408535,25.9798543 1.76945095,26.0805827 2.60213375,25.576941 L17.6945095,17.1157601 Z" id="路径" fill="#000000" opacity="0.2"></path>
                            <path d="M0.4163414,25.3754843 C0.10408535,25.0732992 6.66133815e-16,24.5696575 6.66133815e-16,23.9652875 L6.66133815e-16,24.0660158 C6.66133815e-16,24.6703859 0.2081707,25.1740276 0.52042675,25.4762126 L0.52042675,25.3754843 L0.4163414,25.3754843 Z M22.898777,14.2953665 L17.6945095,17.1157601 L17.7985948,17.2164885 L22.898777,14.3960948 C23.6273744,13.9931815 23.9396305,13.4895397 23.9396305,12.985898 C23.9396305,13.4895397 23.5232891,13.8924531 22.898777,14.2953665 L22.898777,14.2953665 Z" id="形状" fill="#000000" opacity="0.12"></path>
                            <path d="M2.60213375,0.49558345 L22.898777,11.6764296 C23.5232891,12.0793429 23.9396305,12.4822563 23.9396305,12.985898 C23.9396305,12.4822563 23.6273744,11.9786146 22.898777,11.5757012 L2.60213375,0.394855106 C1.14493885,-0.410971641 0,0.193398419 0,1.80505191 L0,1.90578026 C0,0.394855106 1.14493885,-0.310243298 2.60213375,0.49558345 Z" id="路径" fill="#FFFFFF" opacity="0.25"></path>
                        </g>
                    </g>
                </g>
            </g>
        </g>
    </g>
</svg>